<svg xmlns="http://www.w3.org/2000/svg" viewBox="0 0 512 512" width="512" height="512">
  <defs>
    <linearGradient id="bgGrad" x1="0%" y1="0%" x2="100%" y2="100%">
      <stop offset="0%" stop-color="#0F766E"/>
      <stop offset="100%" stop-color="#14B8A6"/>
    </linearGradient>
    <linearGradient id="sunGrad" x1="0%" y1="0%" x2="0%" y2="100%">
      <stop offset="0%" stop-color="#FDE047"/>
      <stop offset="100%" stop-color="#F97316"/>
    </linearGradient>
    <linearGradient id="sandGrad" x1="0%" y1="0%" x2="100%" y2="100%">
      <stop offset="0%" stop-color="#FDE68A"/>
      <stop offset="100%" stop-color="#F59E0B"/>
    </linearGradient>
  </defs>
  
  <!-- App Background Squircle -->
  <rect width="512" height="512" rx="112" fill="url(#bgGrad)"/>
  
  <!-- Golden Sun -->
  <circle cx="256" cy="190" r="95" fill="url(#sunGrad)"/>
  
  <!-- Coastal Waves -->
  <path d="M60 380 Q 140 330 256 360 T 452 350 L 452 452 L 60 452 Z" fill="#0D9488" opacity="0.6"/>
  <path d="M60 410 Q 180 370 290 400 T 452 390 L 452 452 L 60 452 Z" fill="#042F2E" opacity="0.4"/>
  <path d="M60 435 Q 200 410 330 425 T 452 420 L 452 452 L 60 452 Z" fill="#CCFBF1" opacity="0.8"/>
  
  <!-- Iconic Goa Coconut Palm Silhouette -->
  <path d="M190 420 Q 210 290 290 210 Q 280 290 205 420 Z" fill="#134E4A"/>
  
  <!-- Palm Fronds (Leaves) -->
  <path d="M290 210 Q 240 160 160 180 Q 220 200 290 210 Z" fill="#0F766E"/>
  <path d="M290 210 Q 270 140 210 130 Q 255 170 290 210 Z" fill="#115E59"/>
  <path d="M290 210 Q 330 140 380 150 Q 330 180 290 210 Z" fill="#0F766E"/>
  <path d="M290 210 Q 360 180 410 215 Q 350 220 290 210 Z" fill="#115E59"/>
  <path d="M290 210 Q 320 240 365 270 Q 325 250 290 210 Z" fill="#134E4A"/>
</svg>
